<mxfile host="app.diagrams.net" modified="2023-11-06T15:26:30.239Z" agent="Mozilla/5.0 (Windows NT 10.0; Win64; x64) AppleWebKit/537.36 (KHTML, like Gecko) Chrome/118.0.0.0 Safari/537.36" etag="KtdU7EF56MikQhwbIpiA" version="22.0.8" type="github">
  <diagram name="Page-1" id="l3E4NXDpPLonG4dHDVBj">
    <mxGraphModel dx="2261" dy="790" grid="1" gridSize="10" guides="1" tooltips="1" connect="1" arrows="1" fold="1" page="1" pageScale="1" pageWidth="827" pageHeight="1169" math="0" shadow="0">
      <root>
        <mxCell id="0" />
        <mxCell id="1" parent="0" />
        <mxCell id="PdyB9XB3RFuWe4hM4mvE-5" value="AWS Redshift" style="outlineConnect=0;dashed=0;verticalLabelPosition=bottom;verticalAlign=top;align=center;html=1;shape=mxgraph.aws3.redshift;fillColor=#2E73B8;gradientColor=none;" vertex="1" parent="1">
          <mxGeometry x="414" y="110" width="50" height="55" as="geometry" />
        </mxCell>
        <mxCell id="PdyB9XB3RFuWe4hM4mvE-9" value="AWS Athena&lt;br&gt;" style="outlineConnect=0;dashed=0;verticalLabelPosition=bottom;verticalAlign=top;align=center;html=1;shape=mxgraph.aws3.athena;fillColor=#F58534;gradientColor=none;" vertex="1" parent="1">
          <mxGeometry x="400" y="380" width="60" height="56.5" as="geometry" />
        </mxCell>
        <mxCell id="PdyB9XB3RFuWe4hM4mvE-11" value="AWS RDS" style="outlineConnect=0;dashed=0;verticalLabelPosition=bottom;verticalAlign=top;align=center;html=1;shape=mxgraph.aws3.rds;fillColor=#2E73B8;gradientColor=none;" vertex="1" parent="1">
          <mxGeometry x="260" y="228" width="72" height="81" as="geometry" />
        </mxCell>
        <mxCell id="PdyB9XB3RFuWe4hM4mvE-13" value="AWS S3" style="outlineConnect=0;dashed=0;verticalLabelPosition=bottom;verticalAlign=top;align=center;html=1;shape=mxgraph.aws3.s3;fillColor=#E05243;gradientColor=none;" vertex="1" parent="1">
          <mxGeometry x="640" y="228" width="76.5" height="93" as="geometry" />
        </mxCell>
        <mxCell id="PdyB9XB3RFuWe4hM4mvE-15" value="Amadeus" style="html=1;verticalLabelPosition=bottom;align=center;labelBackgroundColor=#ffffff;verticalAlign=top;strokeWidth=2;strokeColor=#0080F0;shadow=0;dashed=0;shape=mxgraph.ios7.icons.data;" vertex="1" parent="1">
          <mxGeometry x="30" y="120" width="70" height="80" as="geometry" />
        </mxCell>
        <mxCell id="PdyB9XB3RFuWe4hM4mvE-17" value="MxP" style="html=1;verticalLabelPosition=bottom;align=center;labelBackgroundColor=#ffffff;verticalAlign=top;strokeWidth=2;strokeColor=#0080F0;shadow=0;dashed=0;shape=mxgraph.ios7.icons.data;" vertex="1" parent="1">
          <mxGeometry x="30" y="350" width="70" height="90" as="geometry" />
        </mxCell>
        <mxCell id="PdyB9XB3RFuWe4hM4mvE-23" value="" style="endArrow=none;dashed=1;html=1;rounded=0;" edge="1" parent="1">
          <mxGeometry width="50" height="50" relative="1" as="geometry">
            <mxPoint x="160" y="560" as="sourcePoint" />
            <mxPoint x="160" y="40" as="targetPoint" />
          </mxGeometry>
        </mxCell>
        <mxCell id="PdyB9XB3RFuWe4hM4mvE-25" value="" style="endArrow=none;dashed=1;html=1;rounded=0;" edge="1" parent="1">
          <mxGeometry width="50" height="50" relative="1" as="geometry">
            <mxPoint x="-40" y="560" as="sourcePoint" />
            <mxPoint x="-40" y="40" as="targetPoint" />
          </mxGeometry>
        </mxCell>
        <mxCell id="PdyB9XB3RFuWe4hM4mvE-27" value="" style="endArrow=none;dashed=1;html=1;rounded=0;" edge="1" parent="1">
          <mxGeometry width="50" height="50" relative="1" as="geometry">
            <mxPoint x="160" y="40" as="sourcePoint" />
            <mxPoint x="-40" y="40" as="targetPoint" />
          </mxGeometry>
        </mxCell>
        <mxCell id="PdyB9XB3RFuWe4hM4mvE-28" value="" style="endArrow=none;dashed=1;html=1;rounded=0;" edge="1" parent="1">
          <mxGeometry width="50" height="50" relative="1" as="geometry">
            <mxPoint x="160" y="560" as="sourcePoint" />
            <mxPoint x="-40" y="560" as="targetPoint" />
          </mxGeometry>
        </mxCell>
      </root>
    </mxGraphModel>
  </diagram>
</mxfile>
